HIERARCHY
ROOT Root
{
  OFFSET 0.0 0.0 0.0
  CHANNELS 6 Xposition Yposition Zposition Zrotation Yrotation Xrotation
  JOINT Hips
  {
    OFFSET 0.0 100.0 0.0
    CHANNELS 6 Xposition Yposition Zposition Zrotation Yrotation Xrotation
    JOINT Spine1
    {
      OFFSET 5.003913 -0.037094 -0.013727
      CHANNELS 3 Zrotation Yrotation Xrotation
      JOINT Spine2
      {
        OFFSET 7.125363 -1e-06 0.0
        CHANNELS 3 Zrotation Yrotation Xrotation
        JOINT Chest
        {
          OFFSET 7.594027 1e-06 0.0
          CHANNELS 3 Zrotation Yrotation Xrotation
          JOINT Neck1
          {
            OFFSET 26.313086 -0.460272 -0.181672
            CHANNELS 3 Zrotation Yrotation Xrotation
            JOINT Neck2
            {
              OFFSET 8.045911 0.0 0.0
              CHANNELS 3 Zrotation Yrotation Xrotation
              JOINT Head
              {
                OFFSET 6.432774 0.0 0.0
                CHANNELS 3 Zrotation Yrotation Xrotation
                JOINT HeadEnd
                {
                  OFFSET 16.169773 0.06451 0.00362
                  CHANNELS 3 Zrotation Yrotation Xrotation
                }
                JOINT Jaw
                {
                  OFFSET 0.108741 3.12938 0.002639
                  CHANNELS 3 Zrotation Yrotation Xrotation
                }
                JOINT LeftEye
                {
                  OFFSET 4.45173 8.166359 3.206392
                  CHANNELS 3 Zrotation Yrotation Xrotation
                }
                JOINT RightEye
                {
                  OFFSET 4.436895 8.135758 -3.222429
                  CHANNELS 3 Zrotation Yrotation Xrotation
                }
              }
            }
          }
          JOINT LeftShoulder
          {
            OFFSET 23.218927 5.195579 1.621656
            CHANNELS 3 Zrotation Yrotation Xrotation
            JOINT LeftArm
            {
              OFFSET 15.902118 2e-06 -2e-06
              CHANNELS 3 Zrotation Yrotation Xrotation
              JOINT LeftForeArm
              {
                OFFSET 28.739307 0.0 -1e-06
                CHANNELS 3 Zrotation Yrotation Xrotation
                JOINT LeftHand
                {
                  OFFSET 27.093981 -4e-06 0.0
                  CHANNELS 3 Zrotation Yrotation Xrotation
                  JOINT LeftHandThumb1
                  {
                    OFFSET 2.276781 3.380274 0.83384
                    CHANNELS 3 Zrotation Yrotation Xrotation
                    JOINT LeftHandThumb2
                    {
                      OFFSET 4.705309 -1e-06 -1e-06
                      CHANNELS 3 Zrotation Yrotation Xrotation
                      JOINT LeftHandThumb3
                      {
                        OFFSET 2.798515 0.0 3e-06
                        CHANNELS 3 Zrotation Yrotation Xrotation
                        JOINT LeftHandThumbEnd
                        {
                          OFFSET 3.180793 4e-06 -4e-06
                          CHANNELS 3 Zrotation Yrotation Xrotation
                        }
                      }
                    }
                  }
                  JOINT LeftHandIndex1
                  {
                    OFFSET 3.247786 2.352677 0.137192
                    CHANNELS 3 Zrotation Yrotation Xrotation
                    JOINT LeftHandIndex2
                    {
                      OFFSET 6.367095 1e-06 0.0
                      CHANNELS 3 Zrotation Yrotation Xrotation
                      JOINT LeftHandIndex3
                      {
                        OFFSET 3.662364 0.0 0.0
                        CHANNELS 3 Zrotation Yrotation Xrotation
                        JOINT LeftHandIndex4
                        {
                          OFFSET 2.329242 4e-06 -4e-06
                          CHANNELS 3 Zrotation Yrotation Xrotation
                          JOINT LeftHandIndexEnd
                          {
                            OFFSET 2.767823 1e-06 0.0
                            CHANNELS 3 Zrotation Yrotation Xrotation
                          }
                        }
                      }
                    }
                  }
                  JOINT LeftHandMiddle1
                  {
                    OFFSET 3.163612 0.945023 -0.406112
                    CHANNELS 3 Zrotation Yrotation Xrotation
                    JOINT LeftHandMiddle2
                    {
                      OFFSET 6.276789 3e-06 0.0
                      CHANNELS 3 Zrotation Yrotation Xrotation
                      JOINT LeftHandMiddle3
                      {
                        OFFSET 4.35652 -1e-06 4e-06
                        CHANNELS 3 Zrotation Yrotation Xrotation
                        JOINT LeftHandMiddle4
                        {
                          OFFSET 2.996877 0.0 8e-06
                          CHANNELS 3 Zrotation Yrotation Xrotation
                          JOINT LeftHandMiddleEnd
                          {
                            OFFSET 2.323256 3e-06 -4e-06
                            CHANNELS 3 Zrotation Yrotation Xrotation
                          }
                        }
                      }
                    }
                  }
                  JOINT LeftHandRing1
                  {
                    OFFSET 2.882606 -0.309162 0.107445
                    CHANNELS 3 Zrotation Yrotation Xrotation
                    JOINT LeftHandRing2
                    {
                      OFFSET 6.033198 0.0 4e-06
                      CHANNELS 3 Zrotation Yrotation Xrotation
                      JOINT LeftHandRing3
                      {
                        OFFSET 4.350578 3e-06 0.0
                        CHANNELS 3 Zrotation Yrotation Xrotation
                        JOINT LeftHandRing4
                        {
                          OFFSET 2.651321 2e-06 -7e-06
                          CHANNELS 3 Zrotation Yrotation Xrotation
                          JOINT LeftHandRingEnd
                          {
                            OFFSET 1.937663 1e-06 -4e-06
                            CHANNELS 3 Zrotation Yrotation Xrotation
                          }
                        }
                      }
                    }
                  }
                  JOINT LeftHandPinky1
                  {
                    OFFSET 2.865315 -1.525436 0.575687
                    CHANNELS 3 Zrotation Yrotation Xrotation
                    JOINT LeftHandPinky2
                    {
                      OFFSET 5.54936 1e-06 -8e-06
                      CHANNELS 3 Zrotation Yrotation Xrotation
                      JOINT LeftHandPinky3
                      {
                        OFFSET 3.070974 0.0 -4e-06
                        CHANNELS 3 Zrotation Yrotation Xrotation
                        JOINT LeftHandPinky4
                        {
                          OFFSET 1.549672 1e-06 0.0
                          CHANNELS 3 Zrotation Yrotation Xrotation
                          JOINT LeftHandPinkyEnd
                          {
                            OFFSET 1.952123 0.0 0.0
                            CHANNELS 3 Zrotation Yrotation Xrotation
                          }
                        }
                      }
                    }
                  }
                }
              }
            }
          }
          JOINT RightShoulder
          {
            OFFSET 23.161716 5.296122 -1.380114
            CHANNELS 3 Zrotation Yrotation Xrotation
            JOINT RightArm
            {
              OFFSET -16.027195 -2e-06 1.1e-05
              CHANNELS 3 Zrotation Yrotation Xrotation
              JOINT RightForeArm
              {
                OFFSET -28.736639 4e-06 2e-06
                CHANNELS 3 Zrotation Yrotation Xrotation
                JOINT RightHand
                {
                  OFFSET -27.133619 6e-06 0.0
                  CHANNELS 3 Zrotation Yrotation Xrotation
                  JOINT RightHandThumb1
                  {
                    OFFSET -2.274328 -3.351035 -0.83067
                    CHANNELS 3 Zrotation Yrotation Xrotation
                    JOINT RightHandThumb2
                    {
                      OFFSET -4.703594 -3e-06 2e-06
                      CHANNELS 3 Zrotation Yrotation Xrotation
                      JOINT RightHandThumb3
                      {
                        OFFSET -2.794935 -4e-06 -3e-06
                        CHANNELS 3 Zrotation Yrotation Xrotation
                        JOINT RightHandThumbEnd
                        {
                          OFFSET -3.183852 4e-06 1e-06
                          CHANNELS 3 Zrotation Yrotation Xrotation
                        }
                      }
                    }
                  }
                  JOINT RightHandIndex1
                  {
                    OFFSET -3.253496 -2.33755 -0.127667
                    CHANNELS 3 Zrotation Yrotation Xrotation
                    JOINT RightHandIndex2
                    {
                      OFFSET -6.344434 0.0 0.0
                      CHANNELS 3 Zrotation Yrotation Xrotation
                      JOINT RightHandIndex3
                      {
                        OFFSET -3.654871 0.0 -8e-06
                        CHANNELS 3 Zrotation Yrotation Xrotation
                        JOINT RightHandIndex4
                        {
                          OFFSET -2.327586 -1e-06 0.0
                          CHANNELS 3 Zrotation Yrotation Xrotation
                          JOINT RightHandIndexEnd
                          {
                            OFFSET -2.770001 3e-06 8e-06
                            CHANNELS 3 Zrotation Yrotation Xrotation
                          }
                        }
                      }
                    }
                  }
                  JOINT RightHandMiddle1
                  {
                    OFFSET -3.168223 -0.944764 0.411762
                    CHANNELS 3 Zrotation Yrotation Xrotation
                    JOINT RightHandMiddle2
                    {
                      OFFSET -6.266691 -1e-06 -4e-06
                      CHANNELS 3 Zrotation Yrotation Xrotation
                      JOINT RightHandMiddle3
                      {
                        OFFSET -4.348901 0.0 0.0
                        CHANNELS 3 Zrotation Yrotation Xrotation
                        JOINT RightHandMiddle4
                        {
                          OFFSET -3.00024 2e-06 -4e-06
                          CHANNELS 3 Zrotation Yrotation Xrotation
                          JOINT RightHandMiddleEnd
                          {
                            OFFSET -2.321477 -4e-06 -4e-06
                            CHANNELS 3 Zrotation Yrotation Xrotation
                          }
                        }
                      }
                    }
                  }
                  JOINT RightHandRing1
                  {
                    OFFSET -2.885654 0.293261 -0.119232
                    CHANNELS 3 Zrotation Yrotation Xrotation
                    JOINT RightHandRing2
                    {
                      OFFSET -6.032835 -1e-06 -4e-06
                      CHANNELS 3 Zrotation Yrotation Xrotation
                      JOINT RightHandRing3
                      {
                        OFFSET -4.33881 0.0 -4e-06
                        CHANNELS 3 Zrotation Yrotation Xrotation
                        JOINT RightHandRing4
                        {
                          OFFSET -2.654903 -4e-06 -4e-06
                          CHANNELS 3 Zrotation Yrotation Xrotation
                          JOINT RightHandRingEnd
                          {
                            OFFSET -1.935122 0.0 4e-06
                            CHANNELS 3 Zrotation Yrotation Xrotation
                          }
                        }
                      }
                    }
                  }
                  JOINT RightHandPinky1
                  {
                    OFFSET -2.866241 1.503904 -0.60527
                    CHANNELS 3 Zrotation Yrotation Xrotation
                    JOINT RightHandPinky2
                    {
                      OFFSET -5.553177 -2e-06 0.0
                      CHANNELS 3 Zrotation Yrotation Xrotation
                      JOINT RightHandPinky3
                      {
                        OFFSET -3.062664 -1e-06 -4e-06
                        CHANNELS 3 Zrotation Yrotation Xrotation
                        JOINT RightHandPinky4
                        {
                          OFFSET -1.546529 2e-06 4e-06
                          CHANNELS 3 Zrotation Yrotation Xrotation
                          JOINT RightHandPinkyEnd
                          {
                            OFFSET -1.952341 0.0 -4e-06
                            CHANNELS 3 Zrotation Yrotation Xrotation
                          }
                        }
                      }
                    }
                  }
                }
              }
            }
          }
        }
      }
    }
    JOINT LeftLeg
    {
      OFFSET -8.443107 2.567604 10.043214
      CHANNELS 3 Zrotation Yrotation Xrotation
      JOINT LeftShin
      {
        OFFSET 43.229198 1e-06 -1e-06
        CHANNELS 3 Zrotation Yrotation Xrotation
        JOINT LeftFoot
        {
          OFFSET 42.298611 1e-06 1e-06
          CHANNELS 3 Zrotation Yrotation Xrotation
          JOINT LeftToeBase
          {
            OFFSET 14.165858 1e-06 0.0
            CHANNELS 3 Zrotation Yrotation Xrotation
            JOINT LeftToeEnd
            {
              OFFSET 6.7141 -0.234461 0.0
              CHANNELS 3 Zrotation Yrotation Xrotation
            }
          }
        }
      }
    }
    JOINT RightLeg
    {
      OFFSET -8.303923 2.592729 -10.047278
      CHANNELS 3 Zrotation Yrotation Xrotation
      JOINT RightShin
      {
        OFFSET -43.369682 0.0 1e-06
        CHANNELS 3 Zrotation Yrotation Xrotation
        JOINT RightFoot
        {
          OFFSET -42.260784 4e-06 2e-06
          CHANNELS 3 Zrotation Yrotation Xrotation
          JOINT RightToeBase
          {
            OFFSET -14.222245 -2e-06 -1e-06
            CHANNELS 3 Zrotation Yrotation Xrotation
            JOINT RightToeEnd
            {
              OFFSET -6.660062 0.232574 -2e-06
              CHANNELS 3 Zrotation Yrotation Xrotation
            }
          }
        }
      }
    }
  }
}
MOTION
Frames: 4
Frame Time: 0.03333333333333333
0.0 0.0 0.0 0.0 -0.0 0.0 -2.918518 107.614853 95.861549 78.692757 32.447231 -178.488861 4.77242 -3.569314 -0.599029 -7.384652 -2.107656 1.248337 20.626925 -1.831978 -1.458257 36.564289 32.536533 4.890563 -2.047271 -0.525742 -9.388031 -27.824112 10.908507 -18.859919 7e-06 -2e-06 -2e-06 -0.032231 -0.046143 0.075153 -0.138151 -0.062659 0.115866 -0.111381 -0.04666 0.046113 -66.870781 -76.468262 74.69751 51.413734 -3.94591 -15.904793 126.891693 1.518727 -0.938317 16.078712 10.344445 8.300317 17.636574 -26.322699 52.41135 -19.466681 -14.395619 29.410498 5e-06 -8.774837 6e-06 17.95719 -18.155441 5.703609 -0.60978 -1.795653 -3.889335 -4.8071 -11.046804 -2.937868 4e-06 -20.975996 -3.4e-05 -5.019943 -25.033583 -4.031967 6e-06 0.0 -0.0 -10.634542 -5.686979 -3.565595 10.573272 -17.922916 -3.113929 4e-06 -13.821192 -1.5e-05 -0.501733 -31.181528 -4.027096 -11.718853 -62.104759 7.604774 -13.982725 -7.150208 -2.875051 13.772735 -8.401472 -3.218259 0.347735 -34.211533 0.771616 -0.963031 -17.733395 2.621016 -1e-06 1e-06 0.0 -17.346436 -20.095219 -4.201806 21.757576 -1.638356 3.866427 -3e-06 -6.338821 -4e-06 -1.69758 -22.591772 -6.19408 -0.0 -5e-06 0.0 62.249054 -77.220528 129.003983 28.050379 -30.661366 2.896426 130.600037 -1.595394 1.310465 9.761072 0.834471 6.141201 22.182117 -20.375797 49.933334 -16.701811 -16.743488 28.476509 -5e-06 -12.690585 -1.3e-05 17.305187 -16.474482 1.516604 -0.105926 -1.513858 -4.27588 -5.039041 -5.612862 -2.953566 1.1e-05 -11.020492 -2.4e-05 -6.111268 -15.895304 -3.840518 -4e-06 1e-06 1e-06 -10.283373 -5.680289 -4.341842 11.028285 -11.302374 -2.372639 -1.384256 -14.238544 -6.320144 -0.625356 -26.924128 -3.827657 -3.594182 -51.36306 -3.799193 -13.708524 -7.363477 -3.720951 18.141142 -14.052701 -3.242678 2.8e-05 -18.787205 -2.8e-05 -0.429695 -8.456016 2.555499 0.0 2e-06 -1e-06 -15.923536 -20.094473 -5.473616 30.419189 -7.190821 1.735944 1.2e-05 -8.162896 -6e-06 -1.861854 -22.861401 -6.167969 1e-06 1e-06 -2e-06 147.20285 -45.024727 0.330691 25.803953 0.029981 1.038632 -54.800251 -9.54755 -15.380262 -14.628249 1.790164 1.944578 -0.999998 -1e-06 -0.0 -30.357538 -32.114113 -26.017643 101.805687 -1.477983 2.133057 -64.425873 8.371895 1.696776 -6.888945 0.866876 1.92851 -1.000003 -1e-06 1e-06 
0.0 0.0 0.0 0.0 -0.0 0.0 -2.837422 106.865189 97.888901 79.311256 26.397408 175.975784 4.991491 -4.528094 -0.468544 -7.650724 -2.374067 1.830448 21.211466 -4.02567 -1.598876 37.723007 29.780514 5.18222 -2.372912 -0.437019 -9.949545 -26.736055 11.613358 -17.132942 6e-06 1e-06 -1e-06 -0.086267 -0.037647 -0.074767 -0.505757 -0.12806 -0.113517 -0.497524 0.038837 -0.028573 -76.29493 -76.837494 85.595078 48.710484 -8.457612 -13.989598 126.784088 0.685536 -0.592742 16.162836 9.154179 6.085836 17.63661 -26.322813 52.411469 -19.466711 -14.395596 29.41057 6e-06 -8.774842 1e-06 18.450109 -18.001669 4.628892 -0.609779 -1.795657 -3.88934 -4.807103 -11.046846 -2.937876 -5e-06 -20.976103 -2e-05 -5.019962 -25.033737 -4.031957 6e-06 0.0 1e-06 -10.634543 -5.686995 -3.56561 10.573269 -17.922989 -3.113921 -4e-06 -13.821266 -1e-05 -0.501751 -31.181734 -4.027094 -11.083482 -60.836716 6.71628 -13.982721 -7.150225 -2.875064 13.772731 -8.401502 -3.218252 0.347723 -34.21172 0.771639 -0.963045 -17.733503 2.621041 1e-06 0.0 -2e-06 -17.346436 -20.095282 -4.201819 21.757574 -1.638358 3.866451 -3e-06 -6.33885 -0.0 -1.69758 -22.591911 -6.194097 0.0 -4e-06 -2e-06 66.828415 -77.072876 125.695892 29.322598 -31.654236 -1.261385 130.009125 -2.288594 1.800841 9.491601 -0.012811 5.280131 22.182192 -20.375971 49.933483 -16.701775 -16.743553 28.476564 2.1e-05 -12.690631 -1.3e-05 17.123766 -17.106052 1.748818 -0.105929 -1.513856 -4.275889 -5.039065 -5.61288 -2.953562 -1.5e-05 -11.020545 7e-06 -6.111341 -15.895401 -3.840497 -1e-06 -0.0 -2e-06 -10.283401 -5.680308 -4.341852 11.028296 -11.302401 -2.372615 -1.384306 -14.238614 -6.320137 -0.625492 -26.924307 -3.827609 -4.035271 -51.446526 -3.567199 -13.708563 -7.363504 -3.720952 18.141159 -14.05273 -3.242648 -2.7e-05 -18.78731 1.8e-05 -0.429729 -8.456079 2.555526 -1e-06 1e-06 -1e-06 -15.923601 -20.094528 -5.473593 30.419258 -7.190798 1.735976 -1e-05 -8.162946 1e-05 -1.861957 -22.861574 -6.167956 2e-06 -5e-06 1e-06 150.855194 -43.104542 -0.703142 32.594631 -0.103994 1.41253 -54.060104 -8.165506 -12.537457 -14.227849 1.574853 1.8732 -0.999997 2e-06 0.0 -31.378269 -24.579649 -27.095493 87.737625 -0.698364 0.922393 -66.455643 6.613066 -2.915094 -6.882774 0.90538 1.987552 -1.0 2e-06 -0.0 
0.0 0.0 0.0 0.0 -0.0 0.0 -2.892511 104.353035 99.56192 80.510773 19.635731 167.834961 4.754659 -5.250598 -0.102867 -8.006785 -2.498113 2.600241 21.183985 -6.401306 -1.577961 37.828671 25.219599 4.854882 -2.634517 0.101886 -10.360683 -26.635704 11.416743 -15.548614 4e-06 -1e-06 1e-06 -0.069497 -0.026586 -0.113806 -0.62186 -0.144498 -0.199445 -0.620241 0.080162 -0.02644 -91.42067 -76.360756 102.472168 45.069004 -12.268285 -13.651134 125.958893 0.025307 -0.184271 15.524066 8.449342 2.802603 17.636721 -26.322748 52.41135 -19.466621 -14.395578 29.41041 1.7e-05 -8.774839 -1.6e-05 18.216436 -18.065788 4.318685 -0.609784 -1.795652 -3.889332 -4.807119 -11.046816 -2.937859 -2.1e-05 -20.976019 -9e-06 -5.019991 -25.033609 -4.031947 5e-06 -1e-06 -0.0 -10.634569 -5.686988 -3.565602 10.573256 -17.922932 -3.113885 -1.2e-05 -13.821213 -2e-06 -0.501794 -31.181566 -4.027067 -11.064717 -59.905186 6.663888 -13.982756 -7.150222 -2.875061 13.772733 -8.401471 -3.218221 0.347687 -34.211563 0.771652 -0.963046 -17.733404 2.621019 -2e-06 0.0 3e-06 -17.346489 -20.095255 -4.201807 21.757601 -1.638352 3.866477 -4e-06 -6.338825 2e-06 -1.69762 -22.591785 -6.194058 0.0 -5e-06 -4e-06 74.240616 -78.24334 118.970734 31.884228 -32.919472 -5.665091 129.484161 -2.303449 1.841949 9.217222 -0.450728 4.99214 22.182106 -20.375864 49.933617 -16.701914 -16.743547 28.476732 -5e-06 -12.690632 5e-06 16.828459 -17.97958 2.049744 -0.105917 -1.513867 -4.275905 -5.039059 -5.612892 -2.953585 5e-06 -11.020551 -3.9e-05 -6.11129 -15.895423 -3.840571 -2e-06 1e-06 0.0 -10.283394 -5.680318 -4.341866 11.028312 -11.30242 -2.372673 -1.38425 -14.238624 -6.32021 -0.625332 -26.924305 -3.827756 -4.961646 -51.661045 -3.250438 -13.708551 -7.363512 -3.72097 18.141188 -14.052753 -3.242723 2.8e-05 -18.787302 -5.4e-05 -0.429705 -8.456065 2.555507 -2e-06 0.0 -1e-06 -15.923569 -20.094564 -5.473651 30.419271 -7.190822 1.735915 6e-06 -8.162933 -1.5e-05 -1.861843 -22.86154 -6.168055 -5e-06 -4e-06 0.0 158.66716 -41.086441 -3.673418 37.171253 -0.330653 1.691777 -59.422672 -3.026435 -10.204341 -13.432091 1.437582 1.866266 -1.000002 -1e-06 1e-06 -33.733849 -21.819012 -24.815628 75.560966 -0.522431 0.627246 -68.07621 0.164577 -5.250389 -6.900422 0.953536 2.018238 -1.000002 -1e-06 -3e-06 
0.0 0.0 0.0 0.0 -0.0 0.0 -2.463696 100.280724 100.73278 81.847 13.740824 158.498779 3.984622 -5.421954 0.122412 -8.491208 -2.357057 3.26742 20.836609 -8.160099 -1.745365 36.673004 19.681568 3.971679 -2.728743 0.508124 -9.823648 -27.611933 11.022457 -14.366754 6e-06 2e-06 0.0 -0.048004 -0.062352 -0.050951 -0.520062 -0.156605 -0.133864 -0.496874 0.022901 0.029525 -104.138992 -74.30809 116.590714 42.70575 -15.949018 -14.085971 126.022118 0.382901 0.317668 14.327628 7.456396 -1.502386 17.636625 -26.322809 52.411331 -19.466795 -14.39572 29.410549 -1.7e-05 -8.774885 1.1e-05 17.663849 -18.075659 4.669103 -0.609771 -1.795658 -3.88934 -4.807093 -11.046837 -2.93786 4.3e-05 -20.97612 -3e-06 -5.019965 -25.033718 -4.031893 6e-06 0.0 -1e-06 -10.634557 -5.686971 -3.565587 10.573358 -17.923018 -3.113938 2.6e-05 -13.82127 9e-06 -0.501729 -31.181717 -4.027008 -10.94007 -59.644409 6.890085 -13.98275 -7.150199 -2.875039 13.772814 -8.401534 -3.218279 0.347791 -34.211742 0.771662 -0.963018 -17.733509 2.621065 1e-06 0.0 0.0 -17.346458 -20.095245 -4.201784 21.757669 -1.638409 3.866409 9e-06 -6.338855 4e-06 -1.697552 -22.591906 -6.194049 -1e-06 -4e-06 -1e-06 85.048393 -79.98394 108.09034 34.94009 -34.722908 -9.477794 129.357697 -1.382579 1.442026 9.518952 -0.134074 5.466221 22.182171 -20.375946 49.933392 -16.701902 -16.743589 28.47662 -1.4e-05 -12.690659 1e-06 16.353292 -18.499468 2.524752 -0.105914 -1.513862 -4.275892 -5.039053 -5.612889 -2.953564 1.4e-05 -11.020582 -4e-06 -6.111304 -15.895453 -3.840497 -3e-06 2e-06 -0.0 -10.283394 -5.680299 -4.341843 11.02834 -11.302451 -2.372651 -1.384259 -14.238654 -6.320145 -0.625403 -26.924398 -3.827627 -5.82214 -51.935055 -2.901131 -13.70856 -7.363491 -3.720942 18.141228 -14.052804 -3.242697 2.3e-05 -18.787374 -6e-06 -0.429703 -8.456113 2.555521 -1e-06 0.0 -2e-06 -15.923577 -20.094536 -5.473588 30.419317 -7.190867 1.735915 1.1e-05 -8.162964 -9e-06 -1.861867 -22.861631 -6.167995 -2e-06 -5e-06 2e-06 170.40361 -38.275162 -7.420629 35.602634 -0.64968 1.68465 -68.509369 2.783597 -12.176121 -14.271999 1.485066 1.952446 -1.000002 0.0 -0.0 -37.810062 -21.839222 -22.690125 67.092865 -0.41764 0.759427 -67.406464 -4.568735 -5.386035 -6.653112 0.919934 1.953503 -1.000001 -2e-06 -1e-06 
